<svg width="62" height="6" viewBox="0 0 62 6" fill="none" xmlns="http://www.w3.org/2000/svg">
<path d="M3.85445 1.72727H2.86723C2.87433 1.64323 2.8696 1.56747 2.85303 1.5C2.83646 1.43253 2.80805 1.37453 2.7678 1.32599C2.72755 1.27628 2.67488 1.2384 2.60977 1.21236C2.54467 1.18632 2.46714 1.1733 2.37718 1.1733C2.20435 1.1733 2.04988 1.2165 1.91375 1.30291C1.77762 1.38814 1.66458 1.51065 1.57462 1.67045C1.48466 1.82907 1.42074 2.01847 1.38286 2.23864C1.34971 2.4517 1.34853 2.62867 1.37931 2.76953C1.41127 2.91039 1.47341 3.01574 1.56574 3.08558C1.65925 3.15542 1.78058 3.19034 1.92973 3.19034C2.02916 3.19034 2.12031 3.1785 2.20317 3.15483C2.28721 3.13116 2.36179 3.09742 2.42689 3.05362C2.49318 3.00864 2.54941 2.95537 2.59557 2.89382C2.64292 2.83108 2.67902 2.76184 2.70388 2.68608H3.6982C3.66032 2.83996 3.59285 2.9974 3.49578 3.15838C3.39872 3.31818 3.27325 3.46555 3.11936 3.6005C2.96548 3.73426 2.78437 3.84257 2.57604 3.92543C2.36771 4.00829 2.13333 4.04972 1.87291 4.04972C1.532 4.04972 1.23785 3.97514 0.990456 3.82599C0.744244 3.67685 0.565504 3.45904 0.454235 3.17259C0.34415 2.88613 0.322251 2.53693 0.388539 2.125C0.454827 1.72727 0.585627 1.39406 0.780939 1.12536C0.976252 0.856652 1.21359 0.654238 1.49294 0.518111C1.7723 0.381984 2.06941 0.31392 2.38428 0.31392C2.6222 0.31392 2.83527 0.345289 3.02348 0.408025C3.21288 0.470762 3.37209 0.5625 3.50111 0.683238C3.63132 0.802793 3.7272 0.950166 3.78875 1.12536C3.8503 1.30054 3.8722 1.50118 3.85445 1.72727ZM5.25049 4.04972C4.95456 4.04972 4.71072 3.99112 4.51895 3.87393C4.32838 3.75556 4.19462 3.59103 4.11768 3.38033C4.04073 3.16844 4.02535 2.92282 4.07151 2.64347C4.11768 2.36411 4.21415 2.11908 4.36093 1.90838C4.50771 1.6965 4.69651 1.53196 4.92733 1.41477C5.15816 1.2964 5.42213 1.23722 5.71924 1.23722C6.01398 1.23722 6.25664 1.2964 6.44722 1.41477C6.63898 1.53196 6.77333 1.6965 6.85028 1.90838C6.9284 2.11908 6.94438 2.36411 6.89822 2.64347C6.85205 2.92282 6.75499 3.16844 6.60702 3.38033C6.45906 3.59103 6.26966 3.75556 6.03884 3.87393C5.8092 3.99112 5.54642 4.04972 5.25049 4.04972ZM5.37123 3.32528C5.45645 3.32528 5.53399 3.29747 5.60383 3.24183C5.67485 3.1862 5.73522 3.10689 5.78493 3.00391C5.83583 2.90092 5.87312 2.77841 5.8968 2.63636C5.92047 2.49313 5.92402 2.37062 5.90745 2.26882C5.89088 2.16584 5.85655 2.08653 5.80447 2.03089C5.75238 1.97526 5.68373 1.94744 5.5985 1.94744C5.51327 1.94744 5.43515 1.97526 5.36412 2.03089C5.2931 2.08653 5.23273 2.16584 5.18302 2.26882C5.1333 2.37062 5.09661 2.49313 5.07293 2.63636C5.04926 2.77841 5.04511 2.90092 5.0605 3.00391C5.07707 3.10689 5.1114 3.1862 5.16349 3.24183C5.21675 3.29747 5.286 3.32528 5.37123 3.32528ZM6.90532 5.02273L7.53387 1.27273H8.50688L8.42876 1.74858H8.45006C8.49978 1.65625 8.56488 1.57161 8.64537 1.49467C8.72705 1.41655 8.82293 1.3544 8.93302 1.30824C9.04429 1.26089 9.16739 1.23722 9.30233 1.23722C9.48226 1.23722 9.64502 1.28516 9.79062 1.38104C9.93621 1.47692 10.0433 1.62784 10.112 1.83381C10.1806 2.03977 10.1878 2.30729 10.1333 2.63636C10.0812 2.95123 9.9883 3.21224 9.85454 3.41939C9.72196 3.62654 9.56571 3.78101 9.38579 3.88281C9.20705 3.98461 9.02061 4.03551 8.82648 4.03551C8.69864 4.03551 8.58796 4.0148 8.49445 3.97337C8.40094 3.93075 8.32577 3.87334 8.26895 3.80114C8.21214 3.72775 8.17307 3.64489 8.15177 3.55256H8.13046L7.88898 5.02273H6.90532ZM8.2654 2.63636C8.2441 2.76894 8.24232 2.88376 8.26008 2.98082C8.27902 3.0767 8.3163 3.15128 8.37194 3.20455C8.42876 3.25663 8.50215 3.28267 8.59211 3.28267C8.68207 3.28267 8.76256 3.25722 8.83358 3.20632C8.90461 3.15424 8.96498 3.08026 9.01469 2.98438C9.06441 2.88731 9.1011 2.77131 9.12478 2.63636C9.14608 2.50142 9.14786 2.38601 9.1301 2.29013C9.11235 2.19306 9.07625 2.11908 9.0218 2.06818C8.96734 2.0161 8.89514 1.99006 8.80518 1.99006C8.71521 1.99006 8.63295 2.0161 8.55837 2.06818C8.48498 2.11908 8.42284 2.19306 8.37194 2.29013C8.32222 2.38601 8.28671 2.50142 8.2654 2.63636ZM10.6624 5.02273C10.5488 5.02273 10.4428 5.01385 10.3446 4.99609C10.2463 4.97952 10.1605 4.95644 10.0871 4.92685L10.4174 4.23082C10.4931 4.25923 10.563 4.27758 10.6269 4.28587C10.692 4.29415 10.7494 4.28942 10.7991 4.27166C10.8489 4.25391 10.8897 4.22017 10.9217 4.17045L10.9536 4.12074L10.4671 1.27273H11.4543L11.5786 3.16193H11.607L12.3705 1.27273H13.4359L11.9515 4.22727C11.8757 4.3776 11.781 4.51255 11.6674 4.6321C11.5549 4.75284 11.4164 4.84813 11.2519 4.91797C11.0874 4.98781 10.8909 5.02273 10.6624 5.02273ZM13.2601 4L13.7146 1.27273H14.6663L14.5811 1.79119H14.6095C14.6912 1.59943 14.7936 1.45916 14.9167 1.37038C15.0398 1.28161 15.1741 1.23722 15.3197 1.23722C15.3623 1.23722 15.4032 1.24077 15.4422 1.24787C15.4825 1.25379 15.5222 1.26207 15.5612 1.27273L15.4192 2.1108C15.373 2.09304 15.3156 2.08061 15.2469 2.07351C15.1783 2.06522 15.1173 2.06108 15.0641 2.06108C14.9694 2.06108 14.8806 2.08298 14.7977 2.12678C14.716 2.16939 14.6462 2.22976 14.5882 2.30788C14.5314 2.38482 14.4935 2.47538 14.4746 2.57955L14.2402 4H13.2601ZM15.428 4L15.8826 1.27273H16.8627L16.4082 4H15.428ZM16.4153 0.988636C16.2827 0.988636 16.1756 0.944839 16.0939 0.857244C16.0122 0.768466 15.982 0.663115 16.0033 0.541193C16.0246 0.416903 16.0897 0.311553 16.1986 0.225142C16.3075 0.137547 16.4283 0.09375 16.5609 0.09375C16.6946 0.09375 16.8012 0.137547 16.8805 0.225142C16.9598 0.311553 16.9894 0.416903 16.9692 0.541193C16.9503 0.663115 16.8864 0.768466 16.7775 0.857244C16.6698 0.944839 16.549 0.988636 16.4153 0.988636ZM18.051 5.07955C17.7764 5.07955 17.5479 5.04048 17.3656 4.96236C17.1845 4.88542 17.0508 4.77888 16.9644 4.64276C16.8791 4.50781 16.8436 4.35275 16.8578 4.17756H17.8024C17.8048 4.23674 17.822 4.28409 17.8539 4.3196C17.8859 4.35511 17.9303 4.38056 17.9871 4.39595C18.0439 4.41134 18.1102 4.41903 18.1859 4.41903C18.3138 4.41903 18.4245 4.38767 18.518 4.32493C18.6115 4.26338 18.6689 4.1527 18.6902 3.9929L18.7683 3.53125H18.7399C18.6902 3.62358 18.6233 3.7023 18.5393 3.7674C18.4552 3.83132 18.3588 3.88045 18.2499 3.91477C18.141 3.94792 18.025 3.96449 17.9019 3.96449C17.7077 3.96449 17.5367 3.91951 17.3887 3.82955C17.2419 3.73958 17.1354 3.59695 17.0691 3.40163C17.004 3.20632 16.9975 2.95123 17.0496 2.63636C17.104 2.30729 17.1999 2.03977 17.3372 1.83381C17.4745 1.62784 17.6326 1.47692 17.8113 1.38104C17.99 1.28516 18.1694 1.23722 18.3493 1.23722C18.4842 1.23722 18.5985 1.26089 18.692 1.30824C18.7855 1.3544 18.8601 1.41655 18.9157 1.49467C18.9713 1.57161 19.0098 1.65625 19.0311 1.74858H19.0524L19.1305 1.27273H20.1107L19.6561 3.9929C19.6206 4.22491 19.5301 4.4214 19.3845 4.58239C19.24 4.74455 19.053 4.86766 18.8234 4.9517C18.5949 5.03693 18.3375 5.07955 18.051 5.07955ZM18.3777 3.26847C18.4677 3.26847 18.5493 3.24361 18.6227 3.19389C18.6961 3.14299 18.7583 3.07079 18.8092 2.97727C18.8601 2.88258 18.8962 2.76894 18.9175 2.63636C18.9388 2.50142 18.94 2.38601 18.921 2.29013C18.9021 2.19306 18.8648 2.11908 18.8092 2.06818C18.7535 2.0161 18.6807 1.99006 18.5908 1.99006C18.5008 1.99006 18.4197 2.0161 18.3475 2.06818C18.2753 2.11908 18.2144 2.19306 18.1646 2.29013C18.1149 2.38601 18.0794 2.50142 18.0581 2.63636C18.0368 2.77131 18.035 2.88613 18.0528 2.98082C18.0705 3.07434 18.1066 3.14595 18.1611 3.19567C18.2155 3.2442 18.2877 3.26847 18.3777 3.26847ZM21.3975 2.46591L21.1418 4H20.1617L20.7654 0.363636H21.71L21.4756 1.79119H21.504C21.5928 1.61719 21.7171 1.48165 21.8769 1.38459C22.0367 1.28634 22.2178 1.23722 22.4202 1.23722C22.612 1.23722 22.7718 1.28101 22.8996 1.36861C23.0275 1.4562 23.118 1.57694 23.1713 1.73082C23.2246 1.88471 23.2346 2.06108 23.2015 2.25994L22.9103 4H21.9302L22.1859 2.46591C22.2072 2.33097 22.19 2.22502 22.1344 2.14808C22.0799 2.07114 21.9905 2.03267 21.8663 2.03267C21.7858 2.03267 21.7124 2.05043 21.6461 2.08594C21.581 2.12027 21.5265 2.16998 21.4827 2.23509C21.4401 2.29901 21.4117 2.37595 21.3975 2.46591ZM25.468 1.27273L25.3473 1.98295H23.5504L23.6711 1.27273H25.468ZM24.1257 0.619318H25.1058L24.6903 3.12287C24.6844 3.16075 24.6856 3.19271 24.6938 3.21875C24.7021 3.24361 24.7187 3.26255 24.7436 3.27557C24.7696 3.28741 24.8039 3.29332 24.8465 3.29332C24.875 3.29332 24.9099 3.28977 24.9513 3.28267C24.9927 3.27438 25.0241 3.26847 25.0454 3.26491L25.0738 3.95384C25.0241 3.96804 24.9572 3.98402 24.8732 4.00178C24.7903 4.02071 24.6938 4.03314 24.5838 4.03906C24.3541 4.04972 24.1671 4.02545 24.0227 3.96626C23.8795 3.90708 23.78 3.81475 23.7244 3.68928C23.6699 3.56262 23.6605 3.40459 23.696 3.2152L24.1257 0.619318ZM26.8924 4L26.6652 1.27273H27.6453L27.6808 2.93466H27.7021L28.3271 1.27273H29.2788L29.364 2.92045H29.3853L29.9606 1.27273H30.9407L29.8044 4H28.7461L28.6041 2.53693H28.5757L27.9507 4H26.8924ZM32.0354 4.04972C31.7442 4.04972 31.5027 3.99408 31.3109 3.88281C31.1192 3.77036 30.9842 3.60937 30.9061 3.39986C30.828 3.18916 30.8138 2.93703 30.8635 2.64347C30.9109 2.36174 31.0085 2.11553 31.1565 1.90483C31.3056 1.69413 31.4932 1.53018 31.7193 1.413C31.9466 1.29581 32.2011 1.23722 32.4828 1.23722C32.6888 1.23722 32.8693 1.26918 33.0244 1.3331C33.1806 1.39702 33.3079 1.48994 33.4061 1.61186C33.5044 1.73378 33.5707 1.88116 33.605 2.05398C33.6405 2.22562 33.6405 2.41974 33.605 2.63636L33.5695 2.86364H31.1334L31.2186 2.32386H32.7527C32.7645 2.24574 32.7569 2.17708 32.7296 2.1179C32.7036 2.05753 32.6616 2.01077 32.6036 1.97763C32.5467 1.9433 32.4781 1.92614 32.3976 1.92614C32.3171 1.92614 32.2413 1.9433 32.1703 1.97763C32.1005 2.01196 32.0407 2.0599 31.991 2.12145C31.9425 2.183 31.9099 2.25521 31.8933 2.33807L31.7868 2.90625C31.7726 2.99384 31.7779 3.07197 31.8028 3.14062C31.8276 3.20928 31.8708 3.26314 31.9324 3.3022C31.9939 3.34126 32.0733 3.3608 32.1703 3.3608C32.2366 3.3608 32.2993 3.35192 32.3585 3.33416C32.4189 3.31522 32.4722 3.288 32.5183 3.25249C32.5657 3.21579 32.6036 3.1714 32.632 3.11932H33.5269C33.4629 3.30871 33.3617 3.47325 33.2232 3.61293C33.0859 3.75142 32.9167 3.85914 32.7154 3.93608C32.5154 4.01184 32.2887 4.04972 32.0354 4.04972ZM34.4328 4L33.9641 0.363636H35.0649L35.1928 2.60085H35.2212L36.18 0.363636H37.0465L37.2666 2.60795H37.2951L38.1615 0.363636H39.2624L37.5862 4H36.6416L36.3647 1.96875H36.3362L35.3774 4H34.4328ZM39.9819 4.04972C39.686 4.04972 39.4422 3.99112 39.2504 3.87393C39.0598 3.75556 38.9261 3.59103 38.8491 3.38033C38.7722 3.16844 38.7568 2.92282 38.803 2.64347C38.8491 2.36411 38.9456 2.11908 39.0924 1.90838C39.2392 1.6965 39.428 1.53196 39.6588 1.41477C39.8896 1.2964 40.1536 1.23722 40.4507 1.23722C40.7454 1.23722 40.9881 1.2964 41.1787 1.41477C41.3704 1.53196 41.5048 1.6965 41.5817 1.90838C41.6598 2.11908 41.6758 2.36411 41.6297 2.64347C41.5835 2.92282 41.4864 3.16844 41.3385 3.38033C41.1905 3.59103 41.0011 3.75556 40.7703 3.87393C40.5406 3.99112 40.2779 4.04972 39.9819 4.04972ZM40.1027 3.32528C40.1879 3.32528 40.2654 3.29747 40.3353 3.24183C40.4063 3.1862 40.4667 3.10689 40.5164 3.00391C40.5673 2.90092 40.6046 2.77841 40.6282 2.63636C40.6519 2.49313 40.6555 2.37062 40.6389 2.26882C40.6223 2.16584 40.588 2.08653 40.5359 2.03089C40.4838 1.97526 40.4152 1.94744 40.3299 1.94744C40.2447 1.94744 40.1666 1.97526 40.0956 2.03089C40.0245 2.08653 39.9642 2.16584 39.9145 2.26882C39.8647 2.37062 39.8281 2.49313 39.8044 2.63636C39.7807 2.77841 39.7766 2.90092 39.7919 3.00391C39.8085 3.10689 39.8428 3.1862 39.8949 3.24183C39.9482 3.29747 40.0174 3.32528 40.1027 3.32528ZM41.8001 4L42.2547 1.27273H43.2064L43.1211 1.79119H43.1495C43.2312 1.59943 43.3336 1.45916 43.4567 1.37038C43.5798 1.28161 43.7142 1.23722 43.8598 1.23722C43.9024 1.23722 43.9432 1.24077 43.9823 1.24787C44.0225 1.25379 44.0622 1.26207 44.1013 1.27273L43.9592 2.1108C43.913 2.09304 43.8556 2.08061 43.787 2.07351C43.7183 2.06522 43.6574 2.06108 43.6041 2.06108C43.5094 2.06108 43.4206 2.08298 43.3378 2.12678C43.2561 2.16939 43.1862 2.22976 43.1282 2.30788C43.0714 2.38482 43.0335 2.47538 43.0146 2.57955L42.7802 4H41.8001ZM44.9553 3.35369L45.1542 2.18892H45.282L46.0988 1.27273H47.1996L45.8573 2.70028H45.5803L44.9553 3.35369ZM43.9681 4L44.5718 0.363636H45.5519L44.9482 4H43.9681ZM45.6513 4L45.2039 2.92045L45.9638 2.22443L46.7735 4H45.6513ZM51.75 1.72727H50.7627C50.7698 1.64323 50.7651 1.56747 50.7485 1.5C50.732 1.43253 50.7036 1.37453 50.6633 1.32599C50.6231 1.27628 50.5704 1.2384 50.5053 1.21236C50.4402 1.18632 50.3626 1.1733 50.2727 1.1733C50.0999 1.1733 49.9454 1.2165 49.8093 1.30291C49.6731 1.38814 49.5601 1.51065 49.4701 1.67045C49.3802 1.82907 49.3162 2.01847 49.2784 2.23864C49.2452 2.4517 49.244 2.62867 49.2748 2.76953C49.3068 2.91039 49.3689 3.01574 49.4612 3.08558C49.5548 3.15542 49.6761 3.19034 49.8252 3.19034C49.9247 3.19034 50.0158 3.1785 50.0987 3.15483C50.1827 3.13116 50.2573 3.09742 50.3224 3.05362C50.3887 3.00864 50.4449 2.95537 50.4911 2.89382C50.5384 2.83108 50.5745 2.76184 50.5994 2.68608H51.5937C51.5558 2.83996 51.4884 2.9974 51.3913 3.15838C51.2942 3.31818 51.1688 3.46555 51.0149 3.6005C50.861 3.73426 50.6799 3.84257 50.4715 3.92543C50.2632 4.00829 50.0288 4.04972 49.7684 4.04972C49.4275 4.04972 49.1334 3.97514 48.886 3.82599C48.6398 3.67685 48.461 3.45904 48.3497 3.17259C48.2397 2.88613 48.2178 2.53693 48.284 2.125C48.3503 1.72727 48.4811 1.39406 48.6764 1.12536C48.8718 0.856652 49.1091 0.654238 49.3884 0.518111C49.6678 0.381984 49.9649 0.31392 50.2798 0.31392C50.5177 0.31392 50.7308 0.345289 50.919 0.408025C51.1084 0.470762 51.2676 0.5625 51.3966 0.683238C51.5268 0.802793 51.6227 0.950166 51.6843 1.12536C51.7458 1.30054 51.7677 1.50118 51.75 1.72727ZM53.146 4.04972C52.8501 4.04972 52.6062 3.99112 52.4145 3.87393C52.2239 3.75556 52.0901 3.59103 52.0132 3.38033C51.9362 3.16844 51.9209 2.92282 51.967 2.64347C52.0132 2.36411 52.1097 2.11908 52.2564 1.90838C52.4032 1.6965 52.592 1.53196 52.8228 1.41477C53.0537 1.2964 53.3176 1.23722 53.6147 1.23722C53.9095 1.23722 54.1522 1.2964 54.3427 1.41477C54.5345 1.53196 54.6688 1.6965 54.7458 1.90838C54.8239 2.11908 54.8399 2.36411 54.7937 2.64347C54.7476 2.92282 54.6505 3.16844 54.5025 3.38033C54.3546 3.59103 54.1652 3.75556 53.9343 3.87393C53.7047 3.99112 53.4419 4.04972 53.146 4.04972ZM53.2667 3.32528C53.352 3.32528 53.4295 3.29747 53.4993 3.24183C53.5704 3.1862 53.6307 3.10689 53.6804 3.00391C53.7313 2.90092 53.7686 2.77841 53.7923 2.63636C53.816 2.49313 53.8195 2.37062 53.803 2.26882C53.7864 2.16584 53.7521 2.08653 53.7 2.03089C53.6479 1.97526 53.5792 1.94744 53.494 1.94744C53.4088 1.94744 53.3307 1.97526 53.2596 2.03089C53.1886 2.08653 53.1282 2.16584 53.0785 2.26882C53.0288 2.37062 52.9921 2.49313 52.9684 2.63636C52.9448 2.77841 52.9406 2.90092 52.956 3.00391C52.9726 3.10689 53.0069 3.1862 53.059 3.24183C53.1123 3.29747 53.1815 3.32528 53.2667 3.32528ZM54.9642 4L55.4187 1.27273H56.3704L56.2852 1.79119H56.3136C56.3953 1.59943 56.4977 1.45916 56.6208 1.37038C56.7439 1.28161 56.8782 1.23722 57.0238 1.23722C57.0665 1.23722 57.1073 1.24077 57.1464 1.24787C57.1866 1.25379 57.2263 1.26207 57.2653 1.27273L57.1233 2.1108C57.0771 2.09304 57.0197 2.08061 56.951 2.07351C56.8824 2.06522 56.8214 2.06108 56.7682 2.06108C56.6735 2.06108 56.5847 2.08298 56.5018 2.12678C56.4201 2.16939 56.3503 2.22976 56.2923 2.30788C56.2355 2.38482 56.1976 2.47538 56.1787 2.57955L55.9443 4H54.9642ZM56.9688 5.02273L57.5973 1.27273H58.5704L58.4922 1.74858H58.5135C58.5633 1.65625 58.6284 1.57161 58.7089 1.49467C58.7905 1.41655 58.8864 1.3544 58.9965 1.30824C59.1078 1.26089 59.2309 1.23722 59.3658 1.23722C59.5457 1.23722 59.7085 1.28516 59.8541 1.38104C59.9997 1.47692 60.1068 1.62784 60.1755 1.83381C60.2441 2.03977 60.2512 2.30729 60.1968 2.63636C60.1447 2.95123 60.0518 3.21224 59.918 3.41939C59.7854 3.62654 59.6292 3.78101 59.4493 3.88281C59.2705 3.98461 59.0841 4.03551 58.89 4.03551C58.7621 4.03551 58.6514 4.0148 58.5579 3.97337C58.4644 3.93075 58.3892 3.87334 58.3324 3.80114C58.2756 3.72775 58.2366 3.64489 58.2152 3.55256H58.1939L57.9525 5.02273H56.9688ZM58.3289 2.63636C58.3076 2.76894 58.3058 2.88376 58.3236 2.98082C58.3425 3.0767 58.3798 3.15128 58.4354 3.20455C58.4922 3.25663 58.5656 3.28267 58.6556 3.28267C58.7455 3.28267 58.826 3.25722 58.8971 3.20632C58.9681 3.15424 59.0285 3.08026 59.0782 2.98438C59.1279 2.88731 59.1646 2.77131 59.1883 2.63636C59.2096 2.50142 59.2113 2.38601 59.1936 2.29013C59.1758 2.19306 59.1397 2.11908 59.0853 2.06818C59.0308 2.0161 58.9586 1.99006 58.8687 1.99006C58.7787 1.99006 58.6964 2.0161 58.6218 2.06818C58.5485 2.11908 58.4863 2.19306 58.4354 2.29013C58.3857 2.38601 58.3502 2.50142 58.3289 2.63636ZM60.9332 4.05682C60.7947 4.05682 60.6817 4.00888 60.5941 3.913C60.5076 3.81593 60.4715 3.69815 60.4858 3.55966C60.5 3.42472 60.5609 3.3093 60.6686 3.21342C60.7775 3.11754 60.9012 3.0696 61.0397 3.0696C61.1711 3.0696 61.2806 3.11754 61.3682 3.21342C61.457 3.3093 61.4943 3.42472 61.4801 3.55966C61.4706 3.65199 61.438 3.73603 61.3824 3.81179C61.328 3.88636 61.2605 3.94614 61.18 3.99112C61.1007 4.03492 61.0184 4.05682 60.9332 4.05682Z" fill="black"/>
</svg>
