<svg width="133" height="25" viewBox="0 0 133 25" fill="none" xmlns="http://www.w3.org/2000/svg">
<path d="M2.33665 24L0.882102 6.54545H7.15483L7.3821 17.1818H7.51847L11.5185 6.54545H17.6094L18.1548 17.0909H18.2912L21.973 6.54545H28.2457L20.973 24H14.2003L13.2912 14.6364H13.1094L9.10938 24H2.33665ZM35.2514 24.3182C33.3878 24.3182 31.8423 23.9621 30.6151 23.25C29.3878 22.5303 28.5241 21.5 28.0241 20.1591C27.5241 18.8106 27.4332 17.197 27.7514 15.3182C28.0545 13.5152 28.6795 11.9394 29.6264 10.5909C30.581 9.24242 31.7817 8.19318 33.2287 7.44318C34.6832 6.69318 36.312 6.31818 38.1151 6.31818C39.4332 6.31818 40.5885 6.52273 41.581 6.93182C42.581 7.34091 43.3954 7.93561 44.0241 8.71591C44.6529 9.49621 45.0772 10.4394 45.2969 11.5455C45.5241 12.6439 45.5241 13.8864 45.2969 15.2727L45.0696 16.7273H29.4787L30.0241 13.2727H39.8423C39.9181 12.7727 39.8688 12.3333 39.6946 11.9545C39.5279 11.5682 39.259 11.2689 38.8878 11.0568C38.5241 10.8371 38.0848 10.7273 37.5696 10.7273C37.0545 10.7273 36.5696 10.8371 36.1151 11.0568C35.6681 11.2765 35.2855 11.5833 34.9673 11.9773C34.6567 12.3712 34.4484 12.8333 34.3423 13.3636L33.6605 17C33.5696 17.5606 33.6037 18.0606 33.7628 18.5C33.9219 18.9394 34.1984 19.2841 34.5923 19.5341C34.9863 19.7841 35.4938 19.9091 36.1151 19.9091C36.5393 19.9091 36.9408 19.8523 37.3196 19.7386C37.706 19.6174 38.0469 19.4432 38.3423 19.2159C38.6454 18.9811 38.8878 18.697 39.0696 18.3636H44.7969C44.3878 19.5758 43.7401 20.6288 42.8537 21.5227C41.9749 22.4091 40.8916 23.0985 39.6037 23.5909C38.3234 24.0758 36.8726 24.3182 35.2514 24.3182ZM50.5952 24L47.5952 0.727272H54.6406L55.4588 15.0455H55.6406L61.777 0.727272H67.3224L68.7315 15.0909H68.9134L74.4588 0.727272H81.5043L70.777 24H64.7315L62.9588 11H62.777L56.6406 24H50.5952ZM86.1094 24.3182C84.2154 24.3182 82.6548 23.9432 81.4276 23.1932C80.2079 22.4356 79.3518 21.3826 78.8594 20.0341C78.367 18.678 78.2685 17.1061 78.5639 15.3182C78.8594 13.5303 79.4768 11.9621 80.4162 10.6136C81.3556 9.25758 82.5639 8.20454 84.0412 7.45454C85.5185 6.69697 87.2079 6.31818 89.1094 6.31818C90.9957 6.31818 92.5488 6.69697 93.7685 7.45454C94.9957 8.20454 95.8556 9.25758 96.348 10.6136C96.848 11.9621 96.9503 13.5303 96.6548 15.3182C96.3594 17.1061 95.7382 18.678 94.7912 20.0341C93.8442 21.3826 92.6321 22.4356 91.1548 23.1932C89.6851 23.9432 88.0033 24.3182 86.1094 24.3182ZM86.8821 19.6818C87.4276 19.6818 87.9238 19.5038 88.3707 19.1477C88.8253 18.7917 89.2116 18.2841 89.5298 17.625C89.8556 16.9659 90.0942 16.1818 90.2457 15.2727C90.3973 14.3561 90.42 13.572 90.3139 12.9205C90.2079 12.2614 89.9882 11.7538 89.6548 11.3977C89.3215 11.0417 88.8821 10.8636 88.3366 10.8636C87.7912 10.8636 87.2912 11.0417 86.8366 11.3977C86.3821 11.7538 85.9957 12.2614 85.6776 12.9205C85.3594 13.572 85.1245 14.3561 84.973 15.2727C84.8215 16.1818 84.795 16.9659 84.8935 17.625C84.9995 18.2841 85.2192 18.7917 85.5526 19.1477C85.8935 19.5038 86.3366 19.6818 86.8821 19.6818ZM97.7457 24L100.655 6.54545H106.746L106.2 9.86364H106.382C106.905 8.63636 107.56 7.73864 108.348 7.17045C109.136 6.60227 109.996 6.31818 110.928 6.31818C111.2 6.31818 111.462 6.34091 111.712 6.38636C111.969 6.42424 112.223 6.47727 112.473 6.54545L111.564 11.9091C111.268 11.7955 110.901 11.7159 110.462 11.6705C110.022 11.6174 109.632 11.5909 109.291 11.5909C108.685 11.5909 108.117 11.7311 107.587 12.0114C107.064 12.2841 106.617 12.6705 106.246 13.1705C105.882 13.6629 105.64 14.2424 105.518 14.9091L104.018 24H97.7457ZM117.939 19.8636L119.212 12.4091H120.03L125.257 6.54545H132.303L123.712 15.6818H121.939L117.939 19.8636ZM111.621 24L115.484 0.727272H121.757L117.893 24H111.621ZM122.393 24L119.53 17.0909L124.393 12.6364L129.575 24H122.393Z" fill="#1876FB"/>
</svg>
